<svg xmlns="http://www.w3.org/2000/svg" width="640" height="360" viewBox="0 0 640 360" role="img" aria-labelledby="title desc">
  <title id="title">Imposter Party Game</title>
  <desc id="desc">Header graphic for the Imposter Party social deduction game.</desc>
  <defs>
    <linearGradient id="bg" x1="0%" y1="0%" x2="100%" y2="100%">
      <stop offset="0%" stop-color="#1a103d"/>
      <stop offset="100%" stop-color="#2d0f45"/>
    </linearGradient>
  </defs>
  <rect width="640" height="360" fill="url(#bg)"/>
  <circle cx="130" cy="120" r="70" fill="#ff6b6b" opacity="0.3"/>
  <circle cx="480" cy="220" r="110" fill="#4ade80" opacity="0.28"/>
  <text x="40" y="80" fill="#ffffff" font-family="'Montserrat', Arial, sans-serif" font-size="26" font-weight="700">Imposter Party</text>
  <text x="40" y="114" fill="#c4f1f9" font-family="'Montserrat', Arial, sans-serif" font-size="18" font-weight="600">Social deduction in your browser</text>
  <text x="40" y="140" fill="#e0f2fe" font-family="'Montserrat', Arial, sans-serif" font-size="14">Hidden roles, fast rounds, instant replays.</text>
  <g stroke="#ffffff" stroke-width="4" stroke-linecap="round" fill="none">
    <path d="M240 250c0-40 80-40 80 0"/>
    <path d="M260 250c0-26 60-26 60 0"/>
  </g>
  <g fill="#ffffff" stroke="#ff6b6b" stroke-width="3" stroke-linejoin="round">
    <path d="M260 190c0-20 18-36 40-36s40 16 40 36-18 36-40 36-40-16-40-36z"/>
    <circle cx="280" cy="188" r="6"/>
    <circle cx="320" cy="188" r="6"/>
    <path d="M285 204c10 8 26 8 36 0" stroke="#2dd4bf" fill="none" stroke-linecap="round"/>
  </g>
  <g fill="none" stroke="#c084fc" stroke-width="4" stroke-linecap="round">
    <path d="M420 150c12-12 32-12 44 0"/>
    <path d="M420 170c12-12 32-12 44 0"/>
    <path d="M420 190c12-12 32-12 44 0"/>
  </g>
</svg>
